<?xml version="1.0" standalone="no"?>
<!DOCTYPE svg PUBLIC "-//W3C//DTD SVG 20010904//EN"
 "http://www.w3.org/TR/2001/REC-SVG-20010904/DTD/svg10.dtd">
<svg version="1.0" xmlns="http://www.w3.org/2000/svg"
 width="102.000000pt" height="102.000000pt" viewBox="0 0 102.000000 102.000000"
 preserveAspectRatio="xMidYMid meet">
<metadata>
Created by potrace 1.14, written by Peter Selinger 2001-2017
</metadata>
<g transform="translate(0.000000,102.000000) scale(0.100000,-0.100000)"
fill="#000000" stroke="none">
<path d="M0 510 l0 -510 510 0 510 0 0 510 0 510 -510 0 -510 0 0 -510z m1010
0 l0 -500 -500 0 -500 0 0 500 0 500 500 0 500 0 0 -500z"/>
<path d="M119 922 c-10 -2 -19 -11 -21 -20 -8 -32 -3 -790 5 -799 14 -14 797
-12 811 2 14 15 17 798 3 812 -8 7 -763 13 -798 5z m463 -169 c37 -21 68 -76
68 -118 0 -74 -76 -146 -147 -139 -49 4 -92 33 -114 74 -67 124 71 255 193
183z m6 -408 c77 -23 163 -109 174 -173 6 -37 -16 -26 -39 19 -96 185 -349
180 -430 -8 -13 -31 -22 -40 -31 -34 -11 6 -9 17 8 53 29 63 89 117 152 139
65 23 100 23 166 4z"/>
<path d="M475 737 c-68 -23 -92 -84 -59 -152 15 -33 66 -66 94 -62 89 13 135
96 93 167 -27 47 -76 65 -128 47z"/>
</g>
</svg>
